<svg id="Capa_1" enable-background="new 0 0 512 512" height="512" viewBox="0 0 512 512" width="512" xmlns="http://www.w3.org/2000/svg"><path d="m169.373 242.314v-18.302c0-4.142-3.358-7.5-7.5-7.5s-7.5 3.358-7.5 7.5v18.302c0 4.142 3.358 7.5 7.5 7.5s7.5-3.358 7.5-7.5z"/><path d="m141.909 266.183c0 4.142 3.358 7.5 7.5 7.5h24.927c4.142 0 7.5-3.358 7.5-7.5s-3.358-7.5-7.5-7.5h-24.927c-4.142 0-7.5 3.358-7.5 7.5z"/><path d="m357.627 242.314v-18.302c0-4.142-3.358-7.5-7.5-7.5s-7.5 3.358-7.5 7.5v18.302c0 4.142 3.358 7.5 7.5 7.5s7.5-3.358 7.5-7.5z"/><path d="m370.09 266.183c0-4.142-3.358-7.5-7.5-7.5h-24.927c-4.142 0-7.5 3.358-7.5 7.5s3.358 7.5 7.5 7.5h24.927c4.142 0 7.5-3.358 7.5-7.5z"/><path d="m177.546 316.559c14.568 7.696 28.488 11.509 41.16 11.509 14.314 0 27.037-4.869 37.294-14.507 19.337 18.171 47.43 19.386 78.453 2.998 4.349-2.297 7.128-6.594 7.433-11.492.308-4.938-1.938-9.585-6.008-12.433-4.611-3.227-8.64-9.393-12.536-15.356-3.453-5.286-7.025-10.752-11.386-14.816-14.768-13.763-38.363-21.075-55.956-10.077-17.594-10.998-41.189-3.686-55.957 10.077-4.362 4.064-7.933 9.53-11.386 14.816-3.896 5.963-7.925 12.129-12.536 15.356-4.07 2.848-6.316 7.496-6.008 12.433.305 4.898 3.084 9.195 7.433 11.492zm23.668-31.077c3.1-4.744 6.028-9.226 9.056-12.047 9.045-8.43 28.09-17.545 40.692-6.119 2.858 2.592 7.217 2.592 10.075 0 12.602-11.425 31.648-2.31 40.692 6.119 3.028 2.822 5.956 7.303 9.055 12.047 4.396 6.728 8.932 13.671 15.265 18.54-19.513 9.979-45.987 16.567-64.194-6.192-1.423-1.779-3.578-2.815-5.856-2.815s-4.433 1.036-5.856 2.815c-18.207 22.758-44.68 16.171-64.194 6.192 6.333-4.868 10.87-11.812 15.265-18.54z"/><path d="m17.59 280.148 21.042 86.468c4.369 24.769 25.744 42.718 50.928 42.718h70.594c4.192 2.413 8.467 4.659 12.816 6.74-8.223 9.14-20.867 25.673-28.743 47.963-4.688 13.243-7.065 26.857-7.065 40.463 0 4.142 3.358 7.5 7.5 7.5h222.674c4.142 0 7.5-3.358 7.5-7.5 0-13.603-2.376-27.213-7.063-40.458-7.877-22.302-20.533-38.845-28.757-47.982 14.166-6.77 27.537-15.275 39.745-25.404 3.188-2.645 3.628-7.373.983-10.561s-7.374-3.628-10.561-.983c-26.689 22.144-59.387 35.913-93.677 39.72-14.689 1.631-29.545 1.339-44.181-.646-12.18-1.65-24.146-4.667-35.699-8.853h45.059c12.35 0 22.398-10.048 22.398-22.398s-10.048-22.398-22.398-22.398h-113.43c-14.433-15.216-25.867-32.574-34.018-51.326-7.325-16.851-11.981-34.937-13.768-53.224-1.503-15.502-.472-30.58 1.452-45.972.045-.281.142-.896.146-.923 1.086-.554 5.24-3.335 6.196-4.154 26.886-23.028 59.483-38.541 94.267-44.862l38.54-7.003c23.844-4.333 48.022-4.333 71.863 0l38.539 7.003c13.588 2.469 26.834 6.36 39.545 11.534 19.827 8.072 38.339 19.296 54.722 33.328 1.89 1.618 3.981 3.03 6.197 4.162.005.029.087.556.125.789 2.217 13.587 2.582 27.173 1.896 40.896-2.657 38.421-17.748 75.038-43.17 104.215-2.721 3.123-2.396 7.86.728 10.582 3.123 2.721 7.861 2.395 10.582-.728 12.139-13.932 22.098-29.43 29.699-45.968 41.476-4.326 73.326-39.259 73.326-81.495 0-20.629-7.532-39.946-21.291-55.047 2.42-5.092 3.577-10.825 3.256-16.613-.504-9.071-4.591-17.597-11.214-23.392-10.299-9.012-21.238-17.203-32.707-24.53 0 0-10.472-38.018-10.478-38.039-13.051-47.38-58.863-80.5-107.635-80.5l-36.784-2.294c-20.749-1.302-41.79-1.302-62.536 0 0 0-36.787 2.294-36.792 2.294-22.152 0-44.409 6.37-62.858 18.649-3.448 2.295-4.383 6.951-2.088 10.399 2.295 3.449 6.951 4.383 10.399 2.088 13.674-9.101 29.534-14.477 45.895-15.561l-11.927 64.465c-4.375.832-8.744 1.726-13.074 2.767-23.087 5.443-45.149 13.745-65.889 24.82l6.375-23.144c3.519-12.767 9.569-24.438 17.983-34.686 2.628-3.202 2.164-7.928-1.038-10.556s-7.927-2.163-10.556 1.038c-9.754 11.882-16.769 25.413-20.85 40.22l-10.477 38.038c-11.469 7.327-22.408 15.518-32.708 24.53-6.623 5.795-10.71 14.321-11.213 23.392-.322 5.788.836 11.521 3.255 16.613-13.759 15.1-21.291 34.418-21.291 55.047 0 14.01 3.516 27.206 9.711 38.759zm139.139 193.892h32.736v22.96h-37.026c.566-7.699 2.001-15.381 4.29-22.96zm150.806 22.96h-103.071v-30.46c0-4.142-3.358-7.5-7.5-7.5h-34.532c8.381-18.207 19.761-31.097 25.214-36.658 1.653.629 5.767 2.08 6.161 2.214 6.676 2.286 13.449 4.196 20.306 5.725 1.498 21.807 19.706 39.094 41.887 39.094 22.176 0 40.382-17.281 41.886-39.082 8.988-2 17.833-4.642 26.495-7.94 5.459 5.549 16.801 18.379 25.192 36.647h-34.538c-4.09 0-7.5 3.41-7.5 7.5zm-41.295-62.361c5.421-.283 10.808-.783 16.15-1.516-2.626 12.155-13.461 21.291-26.39 21.291-12.931 0-23.768-9.139-26.392-21.297 6.385.878 12.831 1.426 19.324 1.66 1.525.055 13.067.081 17.308-.138zm56.295 62.361v-22.96h32.735c2.289 7.578 3.724 15.26 4.29 22.96zm-74.452-110.064c0 4.079-3.319 7.398-7.398 7.398h-31.83v-14.796h31.83c4.079 0 7.398 3.319 7.398 7.398zm-54.229-7.398v14.796h-104.294c-17.943 0-33.162-12.833-36.189-30.514-.029-.17-14.059-57.848-14.059-57.848 5.397 4.225 11.347 7.776 17.725 10.554l10.967 45.068c1.913 10.415 10.932 17.943 21.556 17.943h104.294zm-104.294-15c-3.384 0-6.252-2.417-6.819-5.747-.029-.173-8.989-37.017-8.989-37.017 2.417.478 4.877.839 7.369 1.102 6.831 14.844 15.591 28.836 26.144 41.661h-17.705zm347.886-57.934c6.746-19.06 10.39-38.964 10.874-59.375.243-10.255-.331-20.731-1.734-30.967 6.391-.492 12.629-3.097 17.76-7.767 3.28-2.985 6.24-6.618 9.274-9.935 10.047 11.998 15.501 26.944 15.501 42.83 0 31.659-21.896 58.303-51.675 65.214zm-20.221-218.85 6.375 23.144c-20.75-11.08-42.819-19.384-65.916-24.826-4.326-1.021-8.678-1.946-13.047-2.761l-11.926-64.465c39.933 2.64 73.871 30.292 84.514 68.908zm-191.555-71.807c20.125-1.263 40.534-1.263 60.663 0l30.944 1.93 11.574 62.564c-24.088-4.378-48.281-8.769-72.851-8.769-2.321 0-4.642.038-6.963.097-22.203.57-44.096 4.712-65.888 8.672l11.574-62.564zm-184.75 154.617c.266-4.868 2.31-9.634 6.086-12.938 29.605-25.904 64.784-44.661 102.754-54.931.051-.014.103-.027.155-.041 37.687-9.955 78.207-17.439 117.3-15.734 31.356 1.368 64.6 7.639 94.884 15.736.046.012.092.024.137.037 37.972 10.269 73.153 29.027 102.758 54.933 7.588 6.64 8.173 19.209 1.395 26.617 0 0-11.015 12.04-11.016 12.041-5.332 5.828-14.675 6.573-20.877 1.261-21.113-18.083-45.753-32.011-72.14-40.757-21.898-7.26-45.099-10.36-67.742-14.474-25.62-4.656-51.602-4.656-77.226 0l-38.539 7.003c-37.397 6.795-72.441 23.473-101.358 48.24-12.709 10.885-23.926-4.622-31.879-13.313-3.414-3.729-4.962-8.757-4.692-13.68zm-2.541 27.997 7.182 7.85c5.133 5.607 12.247 9.264 19.853 9.85-3.226 23.59-2.071 47.846 3.431 71.011 1.555 6.548 3.44 12.999 5.668 19.322-2.712-.631-5.358-1.429-7.93-2.377-42.407-15.631-57.21-71.013-28.204-105.656z"/></svg>