<svg xmlns="http://www.w3.org/2000/svg" viewBox="0 0 1707 408"><defs><style>.cls-1{stroke:#000;stroke-miterlimit:10;stroke-width:3px;}.cls-2{font-size:249.54px;font-family:VarelaRound-Regular, Varela Round;letter-spacing:-0.04em;}.cls-3{letter-spacing:-0.06em;}.cls-4{letter-spacing:-0.06em;}.cls-5{letter-spacing:-0.05em;}.cls-6{letter-spacing:-0.06em;}.cls-7{letter-spacing:-0.05em;}</style></defs><g id="Layer_1" data-name="Layer 1"><path class="cls-1" d="M134.9,193.93V180.05a5.69,5.69,0,1,0-11.38,0v13.88a5.69,5.69,0,1,0,11.38,0Z"/><path class="cls-1" d="M114.07,212a5.68,5.68,0,0,0,5.69,5.68h18.9a5.69,5.69,0,1,0,0-11.37h-18.9A5.69,5.69,0,0,0,114.07,212Z"/><path class="cls-1" d="M277.64,193.93V180.05a5.69,5.69,0,1,0-11.37,0v13.88a5.69,5.69,0,1,0,11.37,0Z"/><path class="cls-1" d="M287.09,212a5.68,5.68,0,0,0-5.68-5.69h-18.9a5.69,5.69,0,1,0,0,11.37h18.9A5.68,5.68,0,0,0,287.09,212Z"/><path class="cls-1" d="M141.1,250.22c11,5.84,21.6,8.73,31.21,8.73a40.17,40.17,0,0,0,28.27-11c14.67,13.78,36,14.7,59.49,2.27a10.51,10.51,0,0,0,5.64-8.71,10.64,10.64,0,0,0-4.56-9.43c-3.49-2.44-6.55-7.12-9.5-11.64-2.62-4-5.33-8.15-8.64-11.23-11.19-10.44-29.09-16-42.43-7.65-13.34-8.33-31.23-2.79-42.43,7.65-3.3,3.08-6,7.22-8.63,11.23-3,4.52-6,9.2-9.5,11.64a10.64,10.64,0,0,0-4.56,9.43,10.51,10.51,0,0,0,5.64,8.71ZM159,226.66c2.35-3.6,4.57-7,6.87-9.13,6.86-6.4,21.3-13.31,30.85-4.64a5.7,5.7,0,0,0,7.64,0c9.56-8.67,24-1.76,30.86,4.64,2.29,2.14,4.51,5.53,6.86,9.13,3.34,5.1,6.78,10.37,11.58,14.06-14.8,7.57-34.87,12.56-48.68-4.7a5.69,5.69,0,0,0-8.88,0c-13.8,17.26-33.88,12.27-48.67,4.7C152.27,237,155.71,231.76,159,226.66Z"/><path class="cls-1" d="M19.81,222.62l16,65.56a39.12,39.12,0,0,0,38.62,32.39h53.53q4.77,2.74,9.72,5.11a110.45,110.45,0,0,0-21.8,36.37,91.9,91.9,0,0,0-5.36,30.68,5.69,5.69,0,0,0,5.69,5.69H285a5.68,5.68,0,0,0,5.68-5.69,91.94,91.94,0,0,0-5.35-30.68,110.57,110.57,0,0,0-21.81-36.38,145.32,145.32,0,0,0,30.14-19.26,5.68,5.68,0,0,0-7.26-8.75,134.6,134.6,0,0,1-71,30.11,136.57,136.57,0,0,1-33.5-.49,130.8,130.8,0,0,1-27.06-6.71H189a17,17,0,0,0,0-34H103a133.62,133.62,0,0,1-36.23-79.27c-1.14-11.76-.36-23.19,1.1-34.86,0-.21.11-.68.11-.7a49.39,49.39,0,0,0,4.7-3.15,151.73,151.73,0,0,1,71.48-34l29.22-5.31a152.1,152.1,0,0,1,54.49,0l29.22,5.31a152.15,152.15,0,0,1,71.48,34,24,24,0,0,0,4.7,3.16s.07.42.09.59a145.65,145.65,0,0,1,1.44,31,134.36,134.36,0,0,1-32.73,79,5.68,5.68,0,0,0,8.57,7.47A145.47,145.47,0,0,0,333.12,255a62.11,62.11,0,0,0,39.46-103.53,26.16,26.16,0,0,0,2.47-12.6,25.52,25.52,0,0,0-8.5-17.74,207.76,207.76,0,0,0-24.8-18.6s-7.95-28.82-7.95-28.84c-9.9-35.92-44.63-61-81.61-61l-27.9-1.74a382.63,382.63,0,0,0-47.41,0L149,12.67a86.51,86.51,0,0,0-47.66,14.14,5.69,5.69,0,1,0,6.3,9.47,71.39,71.39,0,0,1,34.8-11.8l-9,48.88c-3.31.63-6.63,1.31-9.91,2.1a206.36,206.36,0,0,0-50,18.82l4.83-17.55A70.9,70.9,0,0,1,92,50.43a5.69,5.69,0,0,0-8.79-7.22,82.05,82.05,0,0,0-15.81,30.5l-8,28.84a207.76,207.76,0,0,0-24.8,18.6,25.52,25.52,0,0,0-8.5,17.74,26,26,0,0,0,2.47,12.6,62.17,62.17,0,0,0-8.78,71.13Zm105.5,147h24.82v17.41H122.06a80.9,80.9,0,0,1,3.25-17.41Zm114.35,17.41H161.51V364a5.69,5.69,0,0,0-5.69-5.69H129.64a101.56,101.56,0,0,1,19.11-27.79c1.26.47,4.38,1.57,4.68,1.67a143.11,143.11,0,0,0,15.39,4.35,31.84,31.84,0,0,0,63.52,0,143.52,143.52,0,0,0,20.09-6,101,101,0,0,1,19.11,27.79H245.35a5.75,5.75,0,0,0-5.69,5.69Zm-31.31-47.29q6.17-.31,12.24-1.15a20.47,20.47,0,0,1-40,0,145.66,145.66,0,0,0,14.65,1.25C196.38,339.91,205.13,339.93,208.35,339.76ZM251,387.05V369.64h24.83a80.9,80.9,0,0,1,3.25,17.41Zm-56.45-83.46A5.62,5.62,0,0,1,189,309.2H164.84V298H189a5.62,5.62,0,0,1,5.61,5.61ZM153.46,298V309.2H74.38a27.76,27.76,0,0,1-27.44-23.14c0-.13-10.66-43.86-10.66-43.86a62,62,0,0,0,13.44,8L58,284.37A16.57,16.57,0,0,0,74.38,298ZM74.38,286.61a5.23,5.23,0,0,1-5.17-4.36c0-.13-6.82-28.07-6.82-28.07q2.76.54,5.59.83A145.14,145.14,0,0,0,87.8,286.6H74.38Zm263.79-43.93a145,145,0,0,0,8.24-45,148,148,0,0,0-1.31-23.49,22.45,22.45,0,0,0,13.46-5.89c2.49-2.26,4.73-5,7-7.53a50.79,50.79,0,0,1-27.43,81.93ZM322.83,76.73l4.84,17.55a206.24,206.24,0,0,0-50-18.82q-4.92-1.17-9.9-2.1l-9-48.88a71.37,71.37,0,0,1,64.08,52.25ZM177.59,22.28a371.42,371.42,0,0,1,46,0l23.47,1.47,8.77,47.44c-18.26-3.32-36.61-6.65-55.24-6.65-1.76,0-3.52,0-5.28.07-16.83.43-33.43,3.57-50,6.58l8.78-47.44ZM37.5,139.52a14,14,0,0,1,4.61-9.81A196.14,196.14,0,0,1,120,88.06l.11,0c28.58-7.55,59.31-13.22,89-11.93,23.77,1,49,5.79,71.94,11.93l.11,0a196,196,0,0,1,77.91,41.65,14.53,14.53,0,0,1,1.06,20.19L351.76,159a11.49,11.49,0,0,1-15.83.95,163.31,163.31,0,0,0-54.7-30.9c-16.61-5.51-34.2-7.86-51.37-11a163.18,163.18,0,0,0-58.55,0l-29.23,5.31A163.19,163.19,0,0,0,65.23,160c-9.64,8.25-18.14-3.5-24.17-10.09A14.19,14.19,0,0,1,37.5,139.52Zm-1.93,21.23L41,166.7a22.9,22.9,0,0,0,15,7.47A147.64,147.64,0,0,0,58.67,228,145.5,145.5,0,0,0,63,242.67a50.23,50.23,0,0,1-6-1.8C24.8,229,13.58,187,35.57,160.75Z"/></g><g id="Layer_2" data-name="Layer 2"><text class="cls-2" transform="translate(440.39 286.63)">plu<tspan class="cls-3" x="337.87" y="0">s</tspan><tspan class="cls-4" x="443.68" y="0">M</tspan><tspan class="cls-5" x="670.01" y="0">e</tspan><tspan class="cls-6" x="800.02" y="0">n</tspan><tspan class="cls-7" x="937.77" y="0">t</tspan><tspan class="cls-5" x="1020.12" y="0">or</tspan></text></g></svg>